{
	"asset":{
		"generator":"Khronos glTF Blender I/O v4.3.47",
		"version":"2.0"
	},
	"extensionsUsed":[
		"KHR_materials_clearcoat",
		"KHR_materials_transmission",
		"KHR_materials_emissive_strength",
		"KHR_materials_specular",
		"KHR_materials_ior"
	],
	"scene":0,
	"scenes":[
		{
			"name":"Scene",
			"nodes":[
				0,
				1,
				2
			]
		}
	],
	"nodes":[
		{
			"mesh":0,
			"name":"Cube_pbr.001"
		},
		{
			"mesh":1,
			"name":"Cube_pbr",
			"scale":[
				1.0218299627304077,
				1,
				1
			],
			"translation":[
				0,
				-0.1635446548461914,
				0
			]
		},
		{
			"mesh":2,
			"name":"Ceiling Lights_pbr",
			"rotation":[
				0,
				0,
				1,
				7.549790126404332e-08
			],
			"scale":[
				2,
				2,
				2
			],
			"translation":[
				14.086657524108887,
				7,
				-15.657560348510742
			]
		}
	],
	"materials":[
		{
			"doubleSided":true,
			"name":"Material.001",
			"pbrMetallicRoughness":{
				"baseColorTexture":{
					"index":0
				},
				"metallicFactor":0,
				"roughnessFactor":0.5
			}
		},
		{
			"doubleSided":true,
			"extensions":{
				"KHR_materials_clearcoat":{
					"clearcoatFactor":0.10000000149011612,
					"clearcoatRoughnessFactor":0.15000000596046448
				},
				"KHR_materials_specular":{
					"specularColorFactor":[
						0.9485430717468262,
						0.9485430717468262,
						0.9485430717468262
					]
				},
				"KHR_materials_ior":{
					"ior":1.4500000476837158
				}
			},
			"name":"Base",
			"pbrMetallicRoughness":{
				"baseColorFactor":[
					0.00800000037997961,
					0.00800000037997961,
					0.00800000037997961,
					1
				],
				"metallicFactor":0.20000000298023224,
				"roughnessFactor":0.30000001192092896
			}
		},
		{
			"doubleSided":true,
			"name":"glossy white",
			"pbrMetallicRoughness":{
				"baseColorFactor":[
					0.800000011920929,
					0.800000011920929,
					0.800000011920929,
					1
				],
				"metallicFactor":0,
				"roughnessFactor":0.10000000149011612
			}
		},
		{
			"doubleSided":true,
			"emissiveFactor":[
				1,
				1,
				1
			],
			"extensions":{
				"KHR_materials_transmission":{
					"transmissionFactor":1
				},
				"KHR_materials_emissive_strength":{
					"emissiveStrength":20
				},
				"KHR_materials_ior":{
					"ior":1.4500000476837158
				}
			},
			"name":"light",
			"pbrMetallicRoughness":{
				"baseColorFactor":[
					0.800000011920929,
					0.800000011920929,
					0.800000011920929,
					1
				],
				"metallicFactor":0,
				"roughnessFactor":0.4000000059604645
			}
		}
	],
	"meshes":[
		{
			"name":"Cube.001",
			"primitives":[
				{
					"attributes":{
						"POSITION":0,
						"NORMAL":1,
						"TEXCOORD_0":2
					},
					"indices":3,
					"material":0
				}
			]
		},
		{
			"name":"Cube.059",
			"primitives":[
				{
					"attributes":{
						"POSITION":4,
						"NORMAL":5,
						"TEXCOORD_0":6,
						"TEXCOORD_1":7
					},
					"indices":8,
					"material":1
				}
			]
		},
		{
			"name":"Cube.054",
			"primitives":[
				{
					"attributes":{
						"POSITION":9,
						"NORMAL":10,
						"TEXCOORD_0":11
					},
					"indices":12,
					"material":2
				},
				{
					"attributes":{
						"POSITION":13,
						"NORMAL":14,
						"TEXCOORD_0":15
					},
					"indices":16,
					"material":3
				}
			]
		}
	],
	"textures":[
		{
			"sampler":0,
			"source":0
		}
	],
	"images":[
		{
			"mimeType":"image/png",
			"name":"CCC Rotary gallery",
			"uri":"MODEL_2/CCC%20Rotary%20gallery.png"
		}
	],
	"accessors":[
		{
			"bufferView":0,
			"componentType":5126,
			"count":318,
			"max":[
				22.012340545654297,
				9.391131401062012,
				33.95819091796875
			],
			"min":[
				-22.012344360351562,
				0,
				-18.927104949951172
			],
			"type":"VEC3"
		},
		{
			"bufferView":1,
			"componentType":5126,
			"count":318,
			"type":"VEC3"
		},
		{
			"bufferView":2,
			"componentType":5126,
			"count":318,
			"type":"VEC2"
		},
		{
			"bufferView":3,
			"componentType":5123,
			"count":540,
			"type":"SCALAR"
		},
		{
			"bufferView":4,
			"componentType":5126,
			"count":4683,
			"max":[
				15.309163093566895,
				9.491131782531738,
				15.32813549041748
			],
			"min":[
				-15.309163093566895,
				7,
				-12.513883590698242
			],
			"type":"VEC3"
		},
		{
			"bufferView":5,
			"componentType":5126,
			"count":4683,
			"type":"VEC3"
		},
		{
			"bufferView":6,
			"componentType":5126,
			"count":4683,
			"type":"VEC2"
		},
		{
			"bufferView":7,
			"componentType":5126,
			"count":4683,
			"type":"VEC2"
		},
		{
			"bufferView":8,
			"componentType":5123,
			"count":12402,
			"type":"SCALAR"
		},
		{
			"bufferView":9,
			"componentType":5126,
			"count":11200,
			"max":[
				16.335472106933594,
				0.03861251473426819,
				20.537220001220703
			],
			"min":[
				-2.2232589721679688,
				-3.1623580980522092e-06,
				0.020658493041992188
			],
			"type":"VEC3"
		},
		{
			"bufferView":10,
			"componentType":5126,
			"count":11200,
			"type":"VEC3"
		},
		{
			"bufferView":11,
			"componentType":5126,
			"count":11200,
			"type":"VEC2"
		},
		{
			"bufferView":12,
			"componentType":5123,
			"count":62400,
			"type":"SCALAR"
		},
		{
			"bufferView":13,
			"componentType":5126,
			"count":6656,
			"max":[
				16.268207550048828,
				0.5596315264701843,
				23.52816390991211
			],
			"min":[
				-2.1559934616088867,
				-0.0003055634442716837,
				0.08792495727539062
			],
			"type":"VEC3"
		},
		{
			"bufferView":14,
			"componentType":5126,
			"count":6656,
			"type":"VEC3"
		},
		{
			"bufferView":15,
			"componentType":5126,
			"count":6656,
			"type":"VEC2"
		},
		{
			"bufferView":16,
			"componentType":5123,
			"count":37284,
			"type":"SCALAR"
		}
	],
	"bufferViews":[
		{
			"buffer":0,
			"byteLength":3816,
			"byteOffset":0,
			"target":34962
		},
		{
			"buffer":0,
			"byteLength":3816,
			"byteOffset":3816,
			"target":34962
		},
		{
			"buffer":0,
			"byteLength":2544,
			"byteOffset":7632,
			"target":34962
		},
		{
			"buffer":0,
			"byteLength":1080,
			"byteOffset":10176,
			"target":34963
		},
		{
			"buffer":0,
			"byteLength":56196,
			"byteOffset":11256,
			"target":34962
		},
		{
			"buffer":0,
			"byteLength":56196,
			"byteOffset":67452,
			"target":34962
		},
		{
			"buffer":0,
			"byteLength":37464,
			"byteOffset":123648,
			"target":34962
		},
		{
			"buffer":0,
			"byteLength":37464,
			"byteOffset":161112,
			"target":34962
		},
		{
			"buffer":0,
			"byteLength":24804,
			"byteOffset":198576,
			"target":34963
		},
		{
			"buffer":0,
			"byteLength":134400,
			"byteOffset":223380,
			"target":34962
		},
		{
			"buffer":0,
			"byteLength":134400,
			"byteOffset":357780,
			"target":34962
		},
		{
			"buffer":0,
			"byteLength":89600,
			"byteOffset":492180,
			"target":34962
		},
		{
			"buffer":0,
			"byteLength":124800,
			"byteOffset":581780,
			"target":34963
		},
		{
			"buffer":0,
			"byteLength":79872,
			"byteOffset":706580,
			"target":34962
		},
		{
			"buffer":0,
			"byteLength":79872,
			"byteOffset":786452,
			"target":34962
		},
		{
			"buffer":0,
			"byteLength":53248,
			"byteOffset":866324,
			"target":34962
		},
		{
			"buffer":0,
			"byteLength":74568,
			"byteOffset":919572,
			"target":34963
		}
	],
	"samplers":[
		{
			"magFilter":9729,
			"minFilter":9987
		}
	],
	"buffers":[
		{
			"byteLength":994140,
			"uri":"MODEL_2.bin"
		}
	]
}
